<svg width="43" height="38" viewBox="0 0 43 38" fill="none" xmlns="http://www.w3.org/2000/svg">
<path d="M7.7999 9.09998L3.8999 14.3V32.5C3.8999 33.1895 4.17383 33.8509 4.66142 34.3385C5.14902 34.826 5.81034 35.1 6.4999 35.1H24.6999C25.3895 35.1 26.0508 34.826 26.5384 34.3385C27.026 33.8509 27.2999 33.1895 27.2999 32.5V14.3L23.3999 9.09998H7.7999Z" stroke="#0077B6" stroke-width="2" stroke-linecap="round" stroke-linejoin="round"/>
<path d="M3.8999 14.3H27.2999" stroke="#0077B6" stroke-width="2" stroke-linecap="round" stroke-linejoin="round"/>
<path d="M20.7999 19.5C20.7999 20.8791 20.252 22.2018 19.2769 23.177C18.3017 24.1521 16.979 24.7 15.5999 24.7C14.2208 24.7 12.8981 24.1521 11.9229 23.177C10.9478 22.2018 10.3999 20.8791 10.3999 19.5" stroke="#0077B6" stroke-width="2" stroke-linecap="round" stroke-linejoin="round"/>
<g filter="url(#filter0_d_114_22)">
<circle cx="29.25" cy="9.75" r="9.75" fill="#184363"/>
</g>
<defs>
<filter id="filter0_d_114_22" x="15.5" y="0" width="27.5" height="27.5" filterUnits="userSpaceOnUse" color-interpolation-filters="sRGB">
<feFlood flood-opacity="0" result="BackgroundImageFix"/>
<feColorMatrix in="SourceAlpha" type="matrix" values="0 0 0 0 0 0 0 0 0 0 0 0 0 0 0 0 0 0 127 0" result="hardAlpha"/>
<feOffset dy="4"/>
<feGaussianBlur stdDeviation="2"/>
<feComposite in2="hardAlpha" operator="out"/>
<feColorMatrix type="matrix" values="0 0 0 0 0 0 0 0 0 0 0 0 0 0 0 0 0 0 0.1 0"/>
<feBlend mode="normal" in2="BackgroundImageFix" result="effect1_dropShadow_114_22"/>
<feBlend mode="normal" in="SourceGraphic" in2="effect1_dropShadow_114_22" result="shape"/>
</filter>
</defs>
</svg>
