<svg width="25" height="21" viewBox="0 0 25 21" fill="none" xmlns="http://www.w3.org/2000/svg">
<path d="M24.66 18.1558L19.7915 14.067C19.5717 13.8824 19.2739 13.7799 18.9613 13.7799H18.1654C19.5131 12.3322 20.314 10.5113 20.314 8.53042C20.314 3.81818 15.7678 0 10.157 0C4.54623 0 0 3.81818 0 8.53042C0 13.2427 4.54623 17.0608 10.157 17.0608C12.5156 17.0608 14.6837 16.3882 16.4074 15.2563V15.9248C16.4074 16.1873 16.5295 16.4375 16.7493 16.622L21.6178 20.7109C22.0768 21.0964 22.8191 21.0964 23.2732 20.7109L24.6551 19.5502C25.1141 19.1647 25.1141 18.5414 24.66 18.1558ZM10.157 13.7799C6.70459 13.7799 3.90654 11.434 3.90654 8.53042C3.90654 5.6309 6.69971 3.28093 10.157 3.28093C13.6094 3.28093 16.4074 5.62679 16.4074 8.53042C16.4074 11.4299 13.6143 13.7799 10.157 13.7799Z" fill="#0077B6"/>
</svg>
